# xmcd
#
# Track frame offsets:
#	150
#	18480
#	35527
#	54772
#	72657
#	93360
#	117555
#	138862
#	155670
#	178765
#
# Disc length: 2684 seconds
#
# Revision: 1
# Processed by: cddbd v1.4PL0 Copyright (c) Steve Scherf et al.
# Submitted via: audiograbber 1.80.04
#
DISCID=880a7a0a
DTITLE=Hazel Miller And The Caucasians - Live At The Fox
DYEAR=1995
DGENRE=R&B
TTITLE0=Shine A Light
TTITLE1=Gimme Back My Life
TTITLE2=Stand By Me
TTITLE3=Home Of The Blues
TTITLE4=We've Got All The Time In The World
TTITLE5=Chain Of Fools
TTITLE6=Pride And Joy
TTITLE7=Better Off With The Blues
TTITLE8=Seven Desires
TTITLE9=I Just Wanna Make Love To You
EXTD=
EXTT0=
EXTT1=
EXTT2=
EXTT3=
EXTT4=
EXTT5=
EXTT6=
EXTT7=
EXTT8=
EXTT9=
PLAYORDER=
